<mxfile host="app.diagrams.net" modified="2023-11-29T22:38:38.618Z" agent="Mozilla/5.0 (Windows NT 10.0; Win64; x64) AppleWebKit/537.36 (KHTML, like Gecko) Chrome/119.0.0.0 Safari/537.36" etag="tCPt3EgmK1jK-Glx1jF-" version="22.1.5" type="device">
  <diagram name="Página-1" id="LlSvOEofZS7p_xhp90nQ">
    <mxGraphModel dx="1823" dy="379" grid="1" gridSize="10" guides="1" tooltips="1" connect="1" arrows="1" fold="1" page="1" pageScale="1" pageWidth="827" pageHeight="1169" math="0" shadow="0">
      <root>
        <mxCell id="0" />
        <mxCell id="1" parent="0" />
        <mxCell id="OhrXi5PZfvqV9Yk3LojG-3" value=":Mascota" style="shape=umlLifeline;perimeter=lifelinePerimeter;whiteSpace=wrap;html=1;container=0;dropTarget=0;collapsible=0;recursiveResize=0;outlineConnect=0;portConstraint=eastwest;newEdgeStyle={&quot;edgeStyle&quot;:&quot;elbowEdgeStyle&quot;,&quot;elbow&quot;:&quot;vertical&quot;,&quot;curved&quot;:0,&quot;rounded&quot;:0};" vertex="1" parent="1">
          <mxGeometry x="-563" y="440" width="100" height="300" as="geometry" />
        </mxCell>
        <mxCell id="OhrXi5PZfvqV9Yk3LojG-4" value="" style="html=1;points=[];perimeter=orthogonalPerimeter;outlineConnect=0;targetShapes=umlLifeline;portConstraint=eastwest;newEdgeStyle={&quot;edgeStyle&quot;:&quot;elbowEdgeStyle&quot;,&quot;elbow&quot;:&quot;vertical&quot;,&quot;curved&quot;:0,&quot;rounded&quot;:0};" vertex="1" parent="OhrXi5PZfvqV9Yk3LojG-3">
          <mxGeometry x="45" y="70" width="10" height="70" as="geometry" />
        </mxCell>
        <mxCell id="OhrXi5PZfvqV9Yk3LojG-5" value="&lt;div&gt;notificarSuscriptores()&lt;/div&gt;" style="html=1;verticalAlign=bottom;startArrow=oval;endArrow=block;startSize=8;edgeStyle=elbowEdgeStyle;elbow=vertical;curved=0;rounded=0;" edge="1" parent="OhrXi5PZfvqV9Yk3LojG-3" target="OhrXi5PZfvqV9Yk3LojG-4">
          <mxGeometry relative="1" as="geometry">
            <mxPoint x="-70" y="70" as="sourcePoint" />
          </mxGeometry>
        </mxCell>
        <mxCell id="OhrXi5PZfvqV9Yk3LojG-11" value="&quot;El doctor fue notificado&quot;" style="html=1;verticalAlign=bottom;endArrow=open;dashed=1;endSize=8;curved=0;rounded=0;" edge="1" parent="1">
          <mxGeometry relative="1" as="geometry">
            <mxPoint x="-359.81999999999994" y="560" as="sourcePoint" />
            <mxPoint x="-510" y="560" as="targetPoint" />
          </mxGeometry>
        </mxCell>
        <mxCell id="OhrXi5PZfvqV9Yk3LojG-12" value=":Doctor" style="shape=umlLifeline;perimeter=lifelinePerimeter;whiteSpace=wrap;html=1;container=0;dropTarget=0;collapsible=0;recursiveResize=0;outlineConnect=0;portConstraint=eastwest;newEdgeStyle={&quot;edgeStyle&quot;:&quot;elbowEdgeStyle&quot;,&quot;elbow&quot;:&quot;vertical&quot;,&quot;curved&quot;:0,&quot;rounded&quot;:0};" vertex="1" parent="1">
          <mxGeometry x="-403" y="440" width="100" height="300" as="geometry" />
        </mxCell>
        <mxCell id="OhrXi5PZfvqV9Yk3LojG-13" value="" style="html=1;points=[];perimeter=orthogonalPerimeter;outlineConnect=0;targetShapes=umlLifeline;portConstraint=eastwest;newEdgeStyle={&quot;edgeStyle&quot;:&quot;elbowEdgeStyle&quot;,&quot;elbow&quot;:&quot;vertical&quot;,&quot;curved&quot;:0,&quot;rounded&quot;:0};" vertex="1" parent="OhrXi5PZfvqV9Yk3LojG-12">
          <mxGeometry x="45" y="70" width="10" height="60" as="geometry" />
        </mxCell>
        <mxCell id="OhrXi5PZfvqV9Yk3LojG-17" value="" style="endArrow=classic;html=1;rounded=0;exitX=0;exitY=0;exitDx=0;exitDy=5;exitPerimeter=0;" edge="1" parent="1" target="OhrXi5PZfvqV9Yk3LojG-12">
          <mxGeometry width="50" height="50" relative="1" as="geometry">
            <mxPoint x="-512" y="520" as="sourcePoint" />
            <mxPoint x="-330" y="600" as="targetPoint" />
          </mxGeometry>
        </mxCell>
        <mxCell id="OhrXi5PZfvqV9Yk3LojG-18" value="notificación(Mascota)" style="edgeLabel;html=1;align=center;verticalAlign=middle;resizable=0;points=[];" vertex="1" connectable="0" parent="OhrXi5PZfvqV9Yk3LojG-17">
          <mxGeometry x="-0.0254" y="8" relative="1" as="geometry">
            <mxPoint as="offset" />
          </mxGeometry>
        </mxCell>
      </root>
    </mxGraphModel>
  </diagram>
</mxfile>
